<svg xmlns="http://www.w3.org/2000/svg" viewBox="0 0 820 380" font-family="ui-sans-serif,system-ui,sans-serif" font-size="12">
  <rect width="820" height="380" rx="12" fill="#0f172a"/>
  <text x="410" y="28" text-anchor="middle" fill="#94a3b8" font-size="11" font-weight="600" letter-spacing="2">AUTHENTICATION &amp; AUTHORISATION FLOW</text>

  <defs>
    <marker id="ar" markerWidth="8" markerHeight="8" refX="5" refY="4" orient="auto">
      <path d="M1,1 L7,4 L1,7 Z" fill="#475569"/>
    </marker>
    <marker id="ar-g" markerWidth="8" markerHeight="8" refX="5" refY="4" orient="auto">
      <path d="M1,1 L7,4 L1,7 Z" fill="#22c55e"/>
    </marker>
    <marker id="ar-r" markerWidth="8" markerHeight="8" refX="5" refY="4" orient="auto">
      <path d="M1,1 L7,4 L1,7 Z" fill="#ef4444"/>
    </marker>
  </defs>

  <!-- ===== LOGIN FLOW ===== -->
  <text x="18" y="58" fill="#64748b" font-size="10" font-weight="600">① LOGIN</text>

  <!-- Client -->
  <rect x="18" y="65" width="80" height="44" rx="6" fill="#1e293b" stroke="#38bdf8" stroke-width="1.5"/>
  <text x="58" y="83" text-anchor="middle" fill="#7dd3fc" font-weight="700" font-size="10">Client</text>
  <text x="58" y="97" text-anchor="middle" fill="#0369a1" font-size="9">POST /auth/login</text>
  <line x1="98" y1="87" x2="122" y2="87" stroke="#475569" stroke-width="1.5" marker-end="url(#ar)"/>

  <!-- Rate Limiter -->
  <rect x="124" y="65" width="90" height="44" rx="6" fill="#1e293b" stroke="#f97316" stroke-width="1.2"/>
  <text x="169" y="83" text-anchor="middle" fill="#fdba74" font-weight="700" font-size="10">Rate Limiter</text>
  <text x="169" y="97" text-anchor="middle" fill="#7c2d12" font-size="9">Redis · 5/min</text>

  <line x1="214" y1="87" x2="238" y2="87" stroke="#475569" stroke-width="1.5" marker-end="url(#ar)"/>

  <!-- FastAPI auth endpoint -->
  <rect x="240" y="65" width="100" height="44" rx="6" fill="#1e293b" stroke="#a78bfa" stroke-width="1.5"/>
  <text x="290" y="83" text-anchor="middle" fill="#c4b5fd" font-weight="700" font-size="10">FastAPI</text>
  <text x="290" y="97" text-anchor="middle" fill="#6d28d9" font-size="9">auth_router</text>
  <line x1="340" y1="87" x2="364" y2="87" stroke="#475569" stroke-width="1.5" marker-end="url(#ar)"/>

  <!-- HMAC verify -->
  <rect x="366" y="65" width="100" height="44" rx="6" fill="#1e293b" stroke="#f59e0b" stroke-width="1.5"/>
  <text x="416" y="83" text-anchor="middle" fill="#fcd34d" font-weight="700" font-size="10">HMAC Verify</text>
  <text x="416" y="97" text-anchor="middle" fill="#92400e" font-size="9">bcrypt · timing-safe</text>
  <line x1="466" y1="87" x2="490" y2="87" stroke="#22c55e" stroke-width="1.5" marker-end="url(#ar-g)"/>
  <text x="468" y="80" fill="#22c55e" font-size="8">✓</text>

  <!-- JWT Issue -->
  <rect x="492" y="65" width="100" height="44" rx="6" fill="#1e293b" stroke="#34d399" stroke-width="1.5"/>
  <text x="542" y="83" text-anchor="middle" fill="#6ee7b7" font-weight="700" font-size="10">JWT Issuer</text>
  <text x="542" y="97" text-anchor="middle" fill="#047857" font-size="9">access + refresh</text>
  <line x1="592" y1="87" x2="616" y2="87" stroke="#22c55e" stroke-width="1.5" marker-end="url(#ar-g)"/>

  <!-- Tokens box -->
  <rect x="618" y="55" width="120" height="64" rx="6" fill="#14532d" stroke="#22c55e" stroke-width="1.5"/>
  <text x="678" y="75" text-anchor="middle" fill="#4ade80" font-weight="700" font-size="10">Token Pair</text>
  <text x="678" y="90" text-anchor="middle" fill="#16a34a" font-size="9">access: 30 min · HS256</text>
  <text x="678" y="103" text-anchor="middle" fill="#166534" font-size="9">refresh: 7 days · HS256</text>
  <text x="678" y="116" text-anchor="middle" fill="#166534" font-size="9">sub, role, jti claims</text>

  <!-- HMAC fail -->
  <rect x="366" y="122" width="100" height="32" rx="6" fill="#3b0000" stroke="#ef4444" stroke-width="1"/>
  <text x="416" y="138" text-anchor="middle" fill="#fca5a5" font-size="9" font-weight="700">401 Unauthorized</text>
  <text x="416" y="149" text-anchor="middle" fill="#7f1d1d" font-size="9">no timing info</text>
  <line x1="416" y1="109" x2="416" y2="120" stroke="#ef4444" stroke-width="1" stroke-dasharray="3,2"/>
  <text x="432" y="119" fill="#ef4444" font-size="8">✗</text>

  <!-- ===== PROTECTED REQUEST FLOW ===== -->
  <text x="18" y="185" fill="#64748b" font-size="10" font-weight="600">② PROTECTED REQUEST</text>

  <!-- Client 2 -->
  <rect x="18" y="193" width="80" height="44" rx="6" fill="#1e293b" stroke="#38bdf8" stroke-width="1.5"/>
  <text x="58" y="211" text-anchor="middle" fill="#7dd3fc" font-weight="700" font-size="10">Client</text>
  <text x="58" y="225" text-anchor="middle" fill="#0369a1" font-size="9">Bearer token</text>
  <line x1="98" y1="215" x2="122" y2="215" stroke="#475569" stroke-width="1.5" marker-end="url(#ar)"/>

  <!-- SecurityHeaders MW -->
  <rect x="124" y="193" width="90" height="44" rx="6" fill="#1e293b" stroke="#f97316" stroke-width="1.2"/>
  <text x="169" y="211" text-anchor="middle" fill="#fdba74" font-weight="700" font-size="10">Security MW</text>
  <text x="169" y="225" text-anchor="middle" fill="#7c2d12" font-size="9">HSTS · CSP · XSS</text>
  <line x1="214" y1="215" x2="238" y2="215" stroke="#475569" stroke-width="1.5" marker-end="url(#ar)"/>

  <!-- JWT Verify -->
  <rect x="240" y="193" width="100" height="44" rx="6" fill="#1e293b" stroke="#a78bfa" stroke-width="1.5"/>
  <text x="290" y="211" text-anchor="middle" fill="#c4b5fd" font-weight="700" font-size="10">JWT Verify</text>
  <text x="290" y="225" text-anchor="middle" fill="#6d28d9" font-size="9">sig + exp + jti</text>
  <line x1="340" y1="215" x2="364" y2="215" stroke="#475569" stroke-width="1.5" marker-end="url(#ar)"/>

  <!-- Blacklist check -->
  <rect x="366" y="193" width="100" height="44" rx="6" fill="#1e293b" stroke="#f59e0b" stroke-width="1.2"/>
  <text x="416" y="211" text-anchor="middle" fill="#fcd34d" font-weight="700" font-size="10">Blacklist</text>
  <text x="416" y="225" text-anchor="middle" fill="#92400e" font-size="9">Redis jti lookup</text>
  <line x1="466" y1="215" x2="490" y2="215" stroke="#22c55e" stroke-width="1.5" marker-end="url(#ar-g)"/>

  <!-- RBAC -->
  <rect x="492" y="193" width="100" height="44" rx="6" fill="#1e293b" stroke="#34d399" stroke-width="1.5"/>
  <text x="542" y="211" text-anchor="middle" fill="#6ee7b7" font-weight="700" font-size="10">RBAC</text>
  <text x="542" y="225" text-anchor="middle" fill="#047857" font-size="9">role hierarchy check</text>
  <line x1="592" y1="215" x2="616" y2="215" stroke="#22c55e" stroke-width="1.5" marker-end="url(#ar-g)"/>

  <!-- Endpoint -->
  <rect x="618" y="193" width="90" height="44" rx="6" fill="#14532d" stroke="#22c55e" stroke-width="1.5"/>
  <text x="663" y="211" text-anchor="middle" fill="#4ade80" font-weight="700" font-size="10">Protected</text>
  <text x="663" y="225" text-anchor="middle" fill="#166534" font-size="9">Endpoint ✓</text>

  <!-- Blacklist revoked path -->
  <rect x="366" y="248" width="100" height="32" rx="6" fill="#3b0000" stroke="#ef4444" stroke-width="1"/>
  <text x="416" y="264" text-anchor="middle" fill="#fca5a5" font-size="9" font-weight="700">401 Revoked</text>
  <line x1="416" y1="237" x2="416" y2="246" stroke="#ef4444" stroke-width="1" stroke-dasharray="3,2"/>

  <!-- RBAC denied -->
  <rect x="492" y="248" width="100" height="32" rx="6" fill="#3b0000" stroke="#ef4444" stroke-width="1"/>
  <text x="542" y="264" text-anchor="middle" fill="#fca5a5" font-size="9" font-weight="700">403 Forbidden</text>
  <line x1="542" y1="237" x2="542" y2="246" stroke="#ef4444" stroke-width="1" stroke-dasharray="3,2"/>

  <!-- ===== RBAC ROLES ===== -->
  <text x="18" y="310" fill="#64748b" font-size="10" font-weight="600">③ ROLE HIERARCHY</text>
  <rect x="18" y="318" width="750" height="44" rx="6" fill="#1e293b" stroke="#334155" stroke-width="1"/>
  <text x="100" y="336" text-anchor="middle" fill="#e879f9" font-weight="700" font-size="10">ADMIN</text>
  <text x="100" y="350" text-anchor="middle" fill="#7e22ce" font-size="9">all permissions</text>
  <line x1="145" y1="340" x2="185" y2="340" stroke="#64748b" stroke-width="1"/>
  <text x="240" y="336" text-anchor="middle" fill="#f472b6" font-weight="700" font-size="10">ATTORNEY</text>
  <text x="240" y="350" text-anchor="middle" fill="#9d174d" font-size="9">search · docs · fraud</text>
  <line x1="295" y1="340" x2="335" y2="340" stroke="#64748b" stroke-width="1"/>
  <text x="395" y="336" text-anchor="middle" fill="#fb923c" font-weight="700" font-size="10">CLERK</text>
  <text x="395" y="350" text-anchor="middle" fill="#7c2d12" font-size="9">upload · search · read</text>
  <line x1="445" y1="340" x2="490" y2="340" stroke="#64748b" stroke-width="1"/>
  <text x="560" y="336" text-anchor="middle" fill="#60a5fa" font-weight="700" font-size="10">VIEWER</text>
  <text x="560" y="350" text-anchor="middle" fill="#1e40af" font-size="9">search · read only</text>
  <line x1="610" y1="340" x2="650" y2="340" stroke="#64748b" stroke-width="1"/>
  <rect x="650" y="328" width="100" height="24" rx="4" fill="#0f172a" stroke="#475569" stroke-width="1"/>
  <text x="700" y="344" text-anchor="middle" fill="#64748b" font-size="9">hierarchy: ADMIN &gt; ATTORNEY &gt; CLERK &gt; VIEWER</text>
</svg>
