<svg xmlns="http://www.w3.org/2000/svg" viewBox="0 0 820 360" font-family="ui-sans-serif,system-ui,sans-serif" font-size="12">
  <rect width="820" height="360" rx="12" fill="#0f172a"/>
  <text x="410" y="28" text-anchor="middle" fill="#94a3b8" font-size="11" font-weight="600" letter-spacing="2">DOCUMENT INGESTION PIPELINE</text>

  <defs>
    <marker id="arr" markerWidth="8" markerHeight="8" refX="5" refY="4" orient="auto">
      <path d="M1,1 L7,4 L1,7 Z" fill="#475569"/>
    </marker>
    <marker id="arr-blue" markerWidth="8" markerHeight="8" refX="5" refY="4" orient="auto">
      <path d="M1,1 L7,4 L1,7 Z" fill="#38bdf8"/>
    </marker>
  </defs>

  <!-- Sources row label -->
  <text x="18" y="65" fill="#64748b" font-size="10" font-weight="600">SOURCES</text>

  <!-- Indiana Courts API -->
  <rect x="18" y="72" width="105" height="48" rx="6" fill="#1e293b" stroke="#38bdf8" stroke-width="1.5"/>
  <text x="70" y="92" text-anchor="middle" fill="#7dd3fc" font-weight="700" font-size="10">Indiana Courts</text>
  <text x="70" y="107" text-anchor="middle" fill="#0369a1" font-size="9">REST API</text>

  <!-- PDF / Uploads -->
  <rect x="18" y="132" width="105" height="48" rx="6" fill="#1e293b" stroke="#38bdf8" stroke-width="1.2"/>
  <text x="70" y="152" text-anchor="middle" fill="#7dd3fc" font-weight="700" font-size="10">PDF / Upload</text>
  <text x="70" y="167" text-anchor="middle" fill="#0369a1" font-size="9">multipart form</text>

  <!-- Public Resource -->
  <rect x="18" y="192" width="105" height="48" rx="6" fill="#1e293b" stroke="#38bdf8" stroke-width="1.2"/>
  <text x="70" y="212" text-anchor="middle" fill="#7dd3fc" font-weight="700" font-size="10">Public Sources</text>
  <text x="70" y="227" text-anchor="middle" fill="#0369a1" font-size="9">scraper / feed</text>

  <!-- Arrow to SQS -->
  <line x1="123" y1="96" x2="166" y2="152" stroke="#475569" stroke-width="1.2" marker-end="url(#arr)"/>
  <line x1="123" y1="156" x2="166" y2="160" stroke="#475569" stroke-width="1.2" marker-end="url(#arr)"/>
  <line x1="123" y1="216" x2="166" y2="172" stroke="#475569" stroke-width="1.2" marker-end="url(#arr)"/>

  <!-- Queue box -->
  <text x="169" y="118" fill="#64748b" font-size="10" font-weight="600">QUEUE</text>
  <rect x="169" y="126" width="100" height="60" rx="6" fill="#1e293b" stroke="#a78bfa" stroke-width="1.5"/>
  <text x="219" y="147" text-anchor="middle" fill="#c4b5fd" font-weight="700" font-size="10">AWS SQS</text>
  <text x="219" y="162" text-anchor="middle" fill="#6d28d9" font-size="9">doc_ingest.fifo</text>
  <text x="219" y="177" text-anchor="middle" fill="#4c1d95" font-size="9">+ DLQ × 3</text>
  <line x1="269" y1="156" x2="294" y2="156" stroke="#475569" stroke-width="1.5" marker-end="url(#arr)"/>

  <!-- Worker -->
  <text x="296" y="118" fill="#64748b" font-size="10" font-weight="600">WORKERS</text>
  <rect x="296" y="126" width="100" height="60" rx="6" fill="#1e293b" stroke="#34d399" stroke-width="1.5"/>
  <text x="346" y="147" text-anchor="middle" fill="#6ee7b7" font-weight="700" font-size="10">Worker Pool</text>
  <text x="346" y="162" text-anchor="middle" fill="#059669" font-size="9">ECS Fargate</text>
  <text x="346" y="177" text-anchor="middle" fill="#047857" font-size="9">concurrency=4</text>
  <line x1="396" y1="156" x2="420" y2="156" stroke="#475569" stroke-width="1.5" marker-end="url(#arr)"/>

  <!-- Processing box -->
  <text x="423" y="118" fill="#64748b" font-size="10" font-weight="600">PROCESSING</text>
  <rect x="423" y="126" width="110" height="60" rx="6" fill="#1e293b" stroke="#f59e0b" stroke-width="1.5"/>
  <text x="478" y="144" text-anchor="middle" fill="#fcd34d" font-weight="700" font-size="10">LegalChunker</text>
  <text x="478" y="158" text-anchor="middle" fill="#92400e" font-size="9">512 tok / 50 overlap</text>
  <text x="478" y="172" text-anchor="middle" fill="#92400e" font-size="9">preserves IC §</text>
  <text x="478" y="186" text-anchor="middle" fill="#92400e" font-size="9">headings, citations</text>
  <line x1="533" y1="156" x2="558" y2="156" stroke="#475569" stroke-width="1.5" marker-end="url(#arr)"/>

  <!-- Embedder -->
  <rect x="560" y="126" width="100" height="60" rx="6" fill="#1e293b" stroke="#f472b6" stroke-width="1.5"/>
  <text x="610" y="147" text-anchor="middle" fill="#fda4af" font-weight="700" font-size="10">Embedder</text>
  <text x="610" y="162" text-anchor="middle" fill="#9d174d" font-size="9">Titan Embed v2</text>
  <text x="610" y="177" text-anchor="middle" fill="#9d174d" font-size="9">1024-dim · batch</text>
  <line x1="660" y1="146" x2="684" y2="146" stroke="#475569" stroke-width="1.2" marker-end="url(#arr)"/>
  <line x1="660" y1="166" x2="684" y2="194" stroke="#475569" stroke-width="1.2" marker-end="url(#arr)"/>
  <line x1="660" y1="177" x2="684" y2="240" stroke="#475569" stroke-width="1.2" marker-end="url(#arr)"/>

  <!-- Storage row label -->
  <text x="688" y="108" fill="#64748b" font-size="10" font-weight="600">STORAGE</text>

  <!-- pgvector -->
  <rect x="688" y="118" width="110" height="48" rx="6" fill="#1e293b" stroke="#f59e0b" stroke-width="1.5"/>
  <text x="743" y="138" text-anchor="middle" fill="#fcd34d" font-weight="700" font-size="10">Aurora pgvector</text>
  <text x="743" y="153" text-anchor="middle" fill="#92400e" font-size="9">IVFFlat cosine idx</text>

  <!-- OpenSearch -->
  <rect x="688" y="176" width="110" height="48" rx="6" fill="#1e293b" stroke="#f59e0b" stroke-width="1.2"/>
  <text x="743" y="196" text-anchor="middle" fill="#fcd34d" font-weight="700" font-size="10">OpenSearch</text>
  <text x="743" y="211" text-anchor="middle" fill="#92400e" font-size="9">BM25 index</text>

  <!-- S3 -->
  <rect x="688" y="234" width="110" height="48" rx="6" fill="#1e293b" stroke="#f59e0b" stroke-width="1.2"/>
  <text x="743" y="254" text-anchor="middle" fill="#fcd34d" font-weight="700" font-size="10">S3 Bucket</text>
  <text x="743" y="269" text-anchor="middle" fill="#92400e" font-size="9">raw + structured JSON</text>

  <!-- DLQ redrive note -->
  <rect x="169" y="205" width="100" height="40" rx="6" fill="#1a0505" stroke="#ef4444" stroke-width="1"/>
  <text x="219" y="221" text-anchor="middle" fill="#fca5a5" font-size="9" font-weight="700">Dead-Letter Q</text>
  <text x="219" y="234" text-anchor="middle" fill="#7f1d1d" font-size="9">3 retries → alert</text>
  <line x1="219" y1="186" x2="219" y2="203" stroke="#ef4444" stroke-width="1" stroke-dasharray="3,2" marker-end="url(#arr)"/>

  <!-- CloudWatch metric -->
  <rect x="296" y="218" width="110" height="36" rx="6" fill="#1e293b" stroke="#64748b" stroke-width="1"/>
  <text x="351" y="234" text-anchor="middle" fill="#94a3b8" font-size="9" font-weight="600">CloudWatch</text>
  <text x="351" y="247" text-anchor="middle" fill="#475569" font-size="9">ingest_latency_ms</text>
  <line x1="346" y1="186" x2="346" y2="216" stroke="#475569" stroke-width="1" stroke-dasharray="3,2" marker-end="url(#arr)"/>

  <text x="410" y="316" text-anchor="middle" fill="#334155" font-size="9">source → queue → worker → chunk → embed → store (vectors + BM25 + raw)</text>
</svg>
